<mxfile host="app.diagrams.net" modified="2023-09-01T15:50:14.037Z" agent="Mozilla/5.0 (Windows NT 10.0; Win64; x64) AppleWebKit/537.36 (KHTML, like Gecko) Chrome/116.0.0.0 Safari/537.36 Edg/116.0.1938.54" etag="bKInEWkra-4LsXycK8Jc" version="21.6.8" type="github">
  <diagram name="Page-1" id="aCAemqEQ7k2VGs6UA13f">
    <mxGraphModel dx="1846" dy="1681" grid="1" gridSize="10" guides="1" tooltips="1" connect="1" arrows="1" fold="1" page="1" pageScale="1" pageWidth="850" pageHeight="1100" math="0" shadow="0">
      <root>
        <mxCell id="0" />
        <mxCell id="1" parent="0" />
        <mxCell id="oESFjLRme1hrRh3XEGf6-26" style="edgeStyle=orthogonalEdgeStyle;rounded=0;orthogonalLoop=1;jettySize=auto;html=1;" edge="1" parent="1" source="oESFjLRme1hrRh3XEGf6-28" target="oESFjLRme1hrRh3XEGf6-25">
          <mxGeometry relative="1" as="geometry">
            <Array as="points">
              <mxPoint x="1161" y="235" />
              <mxPoint x="1161" y="212" />
            </Array>
          </mxGeometry>
        </mxCell>
        <mxCell id="AG-qAVcDoFYbE1f2QO8a-22" value="" style="whiteSpace=wrap;html=1;aspect=fixed;fillColor=none;strokeColor=#666666;shadow=0;gradientColor=#b3b3b3;" parent="1" vertex="1">
          <mxGeometry x="345.5" y="-90" width="690" height="690" as="geometry" />
        </mxCell>
        <mxCell id="oESFjLRme1hrRh3XEGf6-32" style="edgeStyle=orthogonalEdgeStyle;rounded=0;orthogonalLoop=1;jettySize=auto;html=1;entryX=1.039;entryY=1.26;entryDx=0;entryDy=0;entryPerimeter=0;" edge="1" parent="1" source="qrzukkUhEbSACDhmpOdy-3" target="AG-qAVcDoFYbE1f2QO8a-43">
          <mxGeometry relative="1" as="geometry" />
        </mxCell>
        <mxCell id="qrzukkUhEbSACDhmpOdy-3" value="NYC Open data&lt;br&gt;" style="sketch=0;html=1;dashed=0;whitespace=wrap;fillColor=#2875E2;strokeColor=#ffffff;points=[[0.005,0.63,0],[0.1,0.2,0],[0.9,0.2,0],[0.5,0,0],[0.995,0.63,0],[0.72,0.99,0],[0.5,1,0],[0.28,0.99,0]];verticalLabelPosition=bottom;align=center;verticalAlign=top;shape=mxgraph.kubernetes.icon;prIcon=api" parent="1" vertex="1">
          <mxGeometry x="-100" y="-70" width="50" height="50" as="geometry" />
        </mxCell>
        <mxCell id="AG-qAVcDoFYbE1f2QO8a-23" value="NYSAP Infrastracture Azure 2.0" style="text;html=1;strokeColor=none;fillColor=none;align=center;verticalAlign=middle;whiteSpace=wrap;rounded=0;" parent="1" vertex="1">
          <mxGeometry x="600" y="-80" width="60" height="30" as="geometry" />
        </mxCell>
        <mxCell id="AG-qAVcDoFYbE1f2QO8a-43" value="IP Address" style="text;html=1;strokeColor=none;fillColor=none;align=center;verticalAlign=middle;whiteSpace=wrap;rounded=0;" parent="1" vertex="1">
          <mxGeometry x="255" y="140" width="60" height="30" as="geometry" />
        </mxCell>
        <mxCell id="qrzukkUhEbSACDhmpOdy-5" value="" style="whiteSpace=wrap;html=1;aspect=fixed;fillColor=none;strokeColor=#666666;shadow=0;gradientColor=#b3b3b3;" parent="1" vertex="1">
          <mxGeometry x="-240" y="10" width="350" height="350" as="geometry" />
        </mxCell>
        <mxCell id="oESFjLRme1hrRh3XEGf6-3" value="" style="group" vertex="1" connectable="0" parent="1">
          <mxGeometry x="360" y="-10" width="325.5" height="331.25" as="geometry" />
        </mxCell>
        <mxCell id="oESFjLRme1hrRh3XEGf6-15" style="edgeStyle=orthogonalEdgeStyle;rounded=0;orthogonalLoop=1;jettySize=auto;html=1;exitX=1;exitY=0.5;exitDx=0;exitDy=0;exitPerimeter=0;entryX=0.379;entryY=0.372;entryDx=0;entryDy=0;entryPerimeter=0;" edge="1" parent="oESFjLRme1hrRh3XEGf6-3" source="AG-qAVcDoFYbE1f2QO8a-14" target="AG-qAVcDoFYbE1f2QO8a-13">
          <mxGeometry relative="1" as="geometry" />
        </mxCell>
        <mxCell id="AG-qAVcDoFYbE1f2QO8a-14" value="Python code&lt;br&gt;" style="verticalLabelPosition=bottom;html=1;verticalAlign=top;align=center;strokeColor=none;fillColor=#00BEF2;shape=mxgraph.azure.code_file;pointerEvents=1;" parent="oESFjLRme1hrRh3XEGf6-3" vertex="1">
          <mxGeometry x="100" y="120" width="47.5" height="50" as="geometry" />
        </mxCell>
        <mxCell id="oESFjLRme1hrRh3XEGf6-14" style="edgeStyle=orthogonalEdgeStyle;rounded=0;orthogonalLoop=1;jettySize=auto;html=1;entryX=0.04;entryY=0.04;entryDx=0;entryDy=0;entryPerimeter=0;" edge="1" parent="oESFjLRme1hrRh3XEGf6-3" source="AG-qAVcDoFYbE1f2QO8a-5" target="AG-qAVcDoFYbE1f2QO8a-14">
          <mxGeometry relative="1" as="geometry" />
        </mxCell>
        <mxCell id="AG-qAVcDoFYbE1f2QO8a-5" value="Azure data functions&lt;br&gt;" style="image;aspect=fixed;html=1;points=[];align=center;fontSize=12;image=img/lib/azure2/iot/Function_Apps.svg;" parent="oESFjLRme1hrRh3XEGf6-3" vertex="1">
          <mxGeometry y="120" width="53.84" height="47.5" as="geometry" />
        </mxCell>
        <mxCell id="AG-qAVcDoFYbE1f2QO8a-13" value="Summons db" style="verticalLabelPosition=bottom;html=1;verticalAlign=top;align=center;strokeColor=none;fillColor=#00BEF2;shape=mxgraph.azure.sql_database_sql_azure;" parent="oESFjLRme1hrRh3XEGf6-3" vertex="1">
          <mxGeometry x="220" y="120" width="47.5" height="50" as="geometry" />
        </mxCell>
        <mxCell id="oESFjLRme1hrRh3XEGf6-6" value="" style="group" vertex="1" connectable="0" parent="1">
          <mxGeometry x="-88.82" y="30" width="47.64" height="205" as="geometry" />
        </mxCell>
        <mxCell id="qrzukkUhEbSACDhmpOdy-1" value="mAXIMO" style="verticalLabelPosition=bottom;html=1;verticalAlign=top;strokeWidth=1;align=center;outlineConnect=0;dashed=0;outlineConnect=0;shape=mxgraph.aws3d.oracleDataCenter;fillColor=#ffffff;strokeColor=#5E5E5E;aspect=fixed;" parent="oESFjLRme1hrRh3XEGf6-6" vertex="1">
          <mxGeometry width="47.64" height="55" as="geometry" />
        </mxCell>
        <mxCell id="qrzukkUhEbSACDhmpOdy-2" value="DWP2" style="verticalLabelPosition=bottom;html=1;verticalAlign=top;strokeWidth=1;align=center;outlineConnect=0;dashed=0;outlineConnect=0;shape=mxgraph.aws3d.oracleDataCenter;fillColor=#ffffff;strokeColor=#5E5E5E;aspect=fixed;" parent="oESFjLRme1hrRh3XEGf6-6" vertex="1">
          <mxGeometry y="75" width="43.32" height="50" as="geometry" />
        </mxCell>
        <mxCell id="qrzukkUhEbSACDhmpOdy-4" value="SOP" style="verticalLabelPosition=bottom;html=1;verticalAlign=top;align=center;strokeColor=none;fillColor=#00BEF2;shape=mxgraph.azure.sql_database;" parent="oESFjLRme1hrRh3XEGf6-6" vertex="1">
          <mxGeometry y="155" width="37.5" height="50" as="geometry" />
        </mxCell>
        <mxCell id="oESFjLRme1hrRh3XEGf6-33" style="edgeStyle=orthogonalEdgeStyle;rounded=0;orthogonalLoop=1;jettySize=auto;html=1;entryX=-0.16;entryY=0.754;entryDx=0;entryDy=0;entryPerimeter=0;" edge="1" parent="1" source="oESFjLRme1hrRh3XEGf6-8" target="AG-qAVcDoFYbE1f2QO8a-47">
          <mxGeometry relative="1" as="geometry" />
        </mxCell>
        <mxCell id="oESFjLRme1hrRh3XEGf6-8" value="DOT XML" style="shape=image;html=1;verticalAlign=top;verticalLabelPosition=bottom;labelBackgroundColor=#ffffff;imageAspect=0;aspect=fixed;image=https://cdn1.iconfinder.com/data/icons/bootstrap-vol-3/16/filetype-xml-128.png" vertex="1" parent="1">
          <mxGeometry x="-88.82000000000001" y="370" width="59" height="59" as="geometry" />
        </mxCell>
        <mxCell id="oESFjLRme1hrRh3XEGf6-12" value="" style="edgeStyle=orthogonalEdgeStyle;rounded=0;orthogonalLoop=1;jettySize=auto;html=1;entryX=0;entryY=0.5;entryDx=0;entryDy=0;" edge="1" parent="1" source="qrzukkUhEbSACDhmpOdy-5" target="AG-qAVcDoFYbE1f2QO8a-47">
          <mxGeometry relative="1" as="geometry">
            <mxPoint x="110" y="185" as="sourcePoint" />
            <mxPoint x="346" y="185" as="targetPoint" />
          </mxGeometry>
        </mxCell>
        <mxCell id="AG-qAVcDoFYbE1f2QO8a-47" value="Firewall&lt;br&gt;" style="image;aspect=fixed;perimeter=ellipsePerimeter;html=1;align=center;shadow=0;dashed=0;spacingTop=3;image=img/lib/active_directory/firewall.svg;" parent="1" vertex="1">
          <mxGeometry x="315" y="150" width="30.5" height="50" as="geometry" />
        </mxCell>
        <mxCell id="oESFjLRme1hrRh3XEGf6-19" value="" style="group" vertex="1" connectable="0" parent="1">
          <mxGeometry x="750" y="0.45" width="240" height="230" as="geometry" />
        </mxCell>
        <mxCell id="AG-qAVcDoFYbE1f2QO8a-17" value="Apps" style="sketch=0;outlineConnect=0;fontColor=#232F3E;gradientColor=none;strokeColor=#232F3E;fillColor=#ffffff;dashed=0;verticalLabelPosition=bottom;verticalAlign=top;align=center;html=1;fontSize=12;fontStyle=0;aspect=fixed;shape=mxgraph.aws4.resourceIcon;resIcon=mxgraph.aws4.apps;" parent="oESFjLRme1hrRh3XEGf6-19" vertex="1">
          <mxGeometry x="9.330000000000041" y="51.04000000000001" width="59.99999999999999" height="59.99999999999999" as="geometry" />
        </mxCell>
        <mxCell id="AG-qAVcDoFYbE1f2QO8a-18" value="" style="image;aspect=fixed;html=1;points=[];align=center;fontSize=12;image=img/lib/azure2/integration/Logic_Apps.svg;" parent="oESFjLRme1hrRh3XEGf6-19" vertex="1">
          <mxGeometry width="78.65999999999998" height="61.03999999999999" as="geometry" />
        </mxCell>
        <mxCell id="oESFjLRme1hrRh3XEGf6-31" style="edgeStyle=orthogonalEdgeStyle;rounded=0;orthogonalLoop=1;jettySize=auto;html=1;" edge="1" parent="oESFjLRme1hrRh3XEGf6-19" source="AG-qAVcDoFYbE1f2QO8a-41">
          <mxGeometry relative="1" as="geometry">
            <mxPoint x="-110" y="139.55" as="targetPoint" />
          </mxGeometry>
        </mxCell>
        <mxCell id="AG-qAVcDoFYbE1f2QO8a-41" value="" style="whiteSpace=wrap;html=1;aspect=fixed;fillColor=none;strokeColor=#666666;shadow=0;gradientColor=#b3b3b3;" parent="oESFjLRme1hrRh3XEGf6-19" vertex="1">
          <mxGeometry x="-50" y="-60" width="290" height="290" as="geometry" />
        </mxCell>
        <mxCell id="oESFjLRme1hrRh3XEGf6-23" value="Budibase/Azure app service" style="text;html=1;strokeColor=none;fillColor=none;align=center;verticalAlign=middle;whiteSpace=wrap;rounded=0;" vertex="1" parent="1">
          <mxGeometry x="770" y="-40" width="60" height="30" as="geometry" />
        </mxCell>
        <mxCell id="AG-qAVcDoFYbE1f2QO8a-42" value="" style="image;sketch=0;aspect=fixed;html=1;points=[];align=center;fontSize=12;image=img/lib/mscae/Docker.svg;" parent="1" vertex="1">
          <mxGeometry x="840" y="110" width="50" height="41" as="geometry" />
        </mxCell>
        <mxCell id="oESFjLRme1hrRh3XEGf6-25" value="Power BI reports&lt;br&gt;" style="sketch=0;pointerEvents=1;shadow=0;dashed=0;html=1;strokeColor=none;fillColor=#434445;aspect=fixed;labelPosition=center;verticalLabelPosition=bottom;verticalAlign=top;align=center;outlineConnect=0;shape=mxgraph.vvd.nsx_dashboard;" vertex="1" parent="1">
          <mxGeometry x="1230" y="188.5" width="50" height="46.5" as="geometry" />
        </mxCell>
        <mxCell id="oESFjLRme1hrRh3XEGf6-27" value="" style="edgeStyle=orthogonalEdgeStyle;rounded=0;orthogonalLoop=1;jettySize=auto;html=1;" edge="1" parent="1" source="AG-qAVcDoFYbE1f2QO8a-22" target="oESFjLRme1hrRh3XEGf6-28">
          <mxGeometry relative="1" as="geometry">
            <mxPoint x="1000" y="237" as="sourcePoint" />
            <mxPoint x="1230" y="212" as="targetPoint" />
          </mxGeometry>
        </mxCell>
        <mxCell id="oESFjLRme1hrRh3XEGf6-28" value="Power BI DW" style="html=1;verticalLabelPosition=bottom;align=center;labelBackgroundColor=#ffffff;verticalAlign=top;strokeWidth=2;strokeColor=#0080F0;shadow=0;dashed=0;shape=mxgraph.ios7.icons.data;" vertex="1" parent="1">
          <mxGeometry x="1068" y="220.45" width="24" height="29.099999999999998" as="geometry" />
        </mxCell>
        <mxCell id="oESFjLRme1hrRh3XEGf6-29" style="edgeStyle=orthogonalEdgeStyle;rounded=0;orthogonalLoop=1;jettySize=auto;html=1;entryX=-0.004;entryY=0.435;entryDx=0;entryDy=0;entryPerimeter=0;" edge="1" parent="1" source="AG-qAVcDoFYbE1f2QO8a-13" target="AG-qAVcDoFYbE1f2QO8a-41">
          <mxGeometry relative="1" as="geometry" />
        </mxCell>
      </root>
    </mxGraphModel>
  </diagram>
</mxfile>
